HIERARCHY
ROOT Hips
{
	OFFSET 0.000000 97.167313 0.000000
	CHANNELS 6 Xposition Yposition Zposition Xrotation Yrotation Zrotation
	JOINT Spine
	{
		OFFSET 0.000000 13.784798 0.064400
		CHANNELS 3 Xrotation Yrotation Zrotation
		JOINT Spine1
		{
			OFFSET 0.000000 12.037903 0.404700
			CHANNELS 3 Xrotation Yrotation Zrotation
			JOINT Spine2
			{
				OFFSET 0.000000 17.795601 0.420200
				CHANNELS 3 Xrotation Yrotation Zrotation
				JOINT Neck
				{
					OFFSET 0.000000 39.131302 11.954600
					CHANNELS 3 Xrotation Yrotation Zrotation
					JOINT Head
					{
						OFFSET 0.000000 14.456192 15.627699
						CHANNELS 3 Xrotation Yrotation Zrotation
						JOINT HeadTop_End
						{
							OFFSET 0.000000 15.703506 7.603401
							CHANNELS 3 Xrotation Yrotation Zrotation
							End Site
							{
								OFFSET 0.000000 17.447403 0.000000
							}
						}
					}
				}
				JOINT LeftShoulder
				{
					OFFSET 17.399500 24.608795 1.168800
					CHANNELS 3 Xrotation Yrotation Zrotation
					JOINT LeftArm
					{
						OFFSET 18.980635 5.765305 1.818600
						CHANNELS 3 Xrotation Yrotation Zrotation
						JOINT LeftForeArm
						{
							OFFSET 49.290169 0.000000 0.000000
							CHANNELS 3 Xrotation Yrotation Zrotation
							JOINT LeftHand
							{
								OFFSET 31.562012 0.000000 0.000000
								CHANNELS 3 Xrotation Yrotation Zrotation
								JOINT LeftHandThumb1
								{
									OFFSET 6.133995 -4.388519 7.076070
									CHANNELS 3 Xrotation Yrotation Zrotation
									JOINT LeftHandThumb2
									{
										OFFSET 6.037666 -3.485840 3.485847
										CHANNELS 3 Xrotation Yrotation Zrotation
										JOINT LeftHandThumb3
										{
											OFFSET 6.496506 -3.750763 3.750761
											CHANNELS 3 Xrotation Yrotation Zrotation
											JOINT LeftHandThumb4
											{
												OFFSET 5.616882 -3.242905 3.242910
												CHANNELS 3 Xrotation Yrotation Zrotation
												End Site
												{
													OFFSET -1.254608 7.132141 0.375429
												}
											}
										}
									}
								}
								JOINT LeftHandPinky1
								{
									OFFSET 18.920792 -0.453171 -11.426712
									CHANNELS 3 Xrotation Yrotation Zrotation
									JOINT LeftHandPinky2
									{
										OFFSET 4.919586 0.000000 0.000000
										CHANNELS 3 Xrotation Yrotation Zrotation
										JOINT LeftHandPinky3
										{
											OFFSET 5.233047 0.000000 0.000000
											CHANNELS 3 Xrotation Yrotation Zrotation
											JOINT LeftHandPinky4
											{
												OFFSET 5.571716 0.000000 0.000000
												CHANNELS 3 Xrotation Yrotation Zrotation
												End Site
												{
													OFFSET -3.459808 4.342407 -0.466164
												}
											}
										}
									}
								}
								JOINT LeftHandRing1
								{
									OFFSET 22.726120 -0.094986 -6.500475
									CHANNELS 3 Xrotation Yrotation Zrotation
									JOINT LeftHandRing2
									{
										OFFSET 6.408615 0.000000 0.000000
										CHANNELS 3 Xrotation Yrotation Zrotation
										JOINT LeftHandRing3
										{
											OFFSET 6.150223 0.000000 0.000000
											CHANNELS 3 Xrotation Yrotation Zrotation
											JOINT LeftHandRing4
											{
												OFFSET 6.145386 0.000000 0.000000
												CHANNELS 3 Xrotation Yrotation Zrotation
												End Site
												{
													OFFSET -3.671402 4.923981 -0.202372
												}
											}
										}
									}
								}
								JOINT LeftHandMiddle1
								{
									OFFSET 23.373947 0.000000 0.000001
									CHANNELS 3 Xrotation Yrotation Zrotation
									JOINT LeftHandMiddle2
									{
										OFFSET 6.996567 0.000000 0.000000
										CHANNELS 3 Xrotation Yrotation Zrotation
										JOINT LeftHandMiddle3
										{
											OFFSET 7.015945 0.000000 0.000000
											CHANNELS 3 Xrotation Yrotation Zrotation
											JOINT LeftHandMiddle4
											{
												OFFSET 7.721573 0.000000 0.000000
												CHANNELS 3 Xrotation Yrotation Zrotation
												End Site
												{
													OFFSET -4.651108 6.158463 0.251582
												}
											}
										}
									}
								}
								JOINT LeftHandIndex1
								{
									OFFSET 21.310577 -0.490082 6.209344
									CHANNELS 3 Xrotation Yrotation Zrotation
									JOINT LeftHandIndex2
									{
										OFFSET 7.536453 0.000000 0.000000
										CHANNELS 3 Xrotation Yrotation Zrotation
										JOINT LeftHandIndex3
										{
											OFFSET 7.512344 0.000000 0.000000
											CHANNELS 3 Xrotation Yrotation Zrotation
											JOINT LeftHandIndex4
											{
												OFFSET 10.212402 0.000000 0.000001
												CHANNELS 3 Xrotation Yrotation Zrotation
												End Site
												{
													OFFSET -5.180801 8.690506 1.388433
												}
											}
										}
									}
								}
							}
						}
					}
				}
				JOINT RightShoulder
				{
					OFFSET -17.399500 24.608795 1.168800
					CHANNELS 3 Xrotation Yrotation Zrotation
					JOINT RightArm
					{
						OFFSET -18.980635 5.765305 1.818600
						CHANNELS 3 Xrotation Yrotation Zrotation
						JOINT RightForeArm
						{
							OFFSET -49.290169 0.000000 0.000000
							CHANNELS 3 Xrotation Yrotation Zrotation
							JOINT RightHand
							{
								OFFSET -31.562012 0.000000 0.000000
								CHANNELS 3 Xrotation Yrotation Zrotation
								JOINT RightHandThumb1
								{
									OFFSET -6.133995 -4.388519 7.076070
									CHANNELS 3 Xrotation Yrotation Zrotation
									JOINT RightHandThumb2
									{
										OFFSET -6.037666 -3.485840 3.485847
										CHANNELS 3 Xrotation Yrotation Zrotation
										JOINT RightHandThumb3
										{
											OFFSET -6.496506 -3.750763 3.750761
											CHANNELS 3 Xrotation Yrotation Zrotation
											JOINT RightHandThumb4
											{
												OFFSET -5.616882 -3.242905 3.242910
												CHANNELS 3 Xrotation Yrotation Zrotation
												End Site
												{
													OFFSET 1.254608 7.132141 0.375429
												}
											}
										}
									}
								}
								JOINT RightHandIndex1
								{
									OFFSET -21.310577 -0.490082 6.209344
									CHANNELS 3 Xrotation Yrotation Zrotation
									JOINT RightHandIndex2
									{
										OFFSET -7.536453 0.000000 0.000000
										CHANNELS 3 Xrotation Yrotation Zrotation
										JOINT RightHandIndex3
										{
											OFFSET -7.512344 0.000000 0.000000
											CHANNELS 3 Xrotation Yrotation Zrotation
											JOINT RightHandIndex4
											{
												OFFSET -10.212402 0.000000 0.000001
												CHANNELS 3 Xrotation Yrotation Zrotation
												End Site
												{
													OFFSET 5.180801 8.690506 1.388433
												}
											}
										}
									}
								}
								JOINT RightHandMiddle1
								{
									OFFSET -23.373947 0.000000 0.000001
									CHANNELS 3 Xrotation Yrotation Zrotation
									JOINT RightHandMiddle2
									{
										OFFSET -6.996567 0.000000 0.000000
										CHANNELS 3 Xrotation Yrotation Zrotation
										JOINT RightHandMiddle3
										{
											OFFSET -7.015945 0.000000 0.000000
											CHANNELS 3 Xrotation Yrotation Zrotation
											JOINT RightHandMiddle4
											{
												OFFSET -7.721573 0.000000 0.000000
												CHANNELS 3 Xrotation Yrotation Zrotation
												End Site
												{
													OFFSET 4.651108 6.158463 0.251582
												}
											}
										}
									}
								}
								JOINT RightHandRing1
								{
									OFFSET -22.726120 -0.094986 -6.500475
									CHANNELS 3 Xrotation Yrotation Zrotation
									JOINT RightHandRing2
									{
										OFFSET -6.408615 0.000000 0.000000
										CHANNELS 3 Xrotation Yrotation Zrotation
										JOINT RightHandRing3
										{
											OFFSET -6.150223 0.000000 0.000000
											CHANNELS 3 Xrotation Yrotation Zrotation
											JOINT RightHandRing4
											{
												OFFSET -6.145386 0.000000 0.000000
												CHANNELS 3 Xrotation Yrotation Zrotation
												End Site
												{
													OFFSET 3.671402 4.923981 -0.202372
												}
											}
										}
									}
								}
								JOINT RightHandPinky1
								{
									OFFSET -18.920792 -0.453171 -11.426712
									CHANNELS 3 Xrotation Yrotation Zrotation
									JOINT RightHandPinky2
									{
										OFFSET -4.919586 0.000000 0.000000
										CHANNELS 3 Xrotation Yrotation Zrotation
										JOINT RightHandPinky3
										{
											OFFSET -5.233047 0.000000 0.000000
											CHANNELS 3 Xrotation Yrotation Zrotation
											JOINT RightHandPinky4
											{
												OFFSET -5.571716 0.000000 0.000000
												CHANNELS 3 Xrotation Yrotation Zrotation
												End Site
												{
													OFFSET 3.459808 4.342407 -0.466164
												}
											}
										}
									}
								}
							}
						}
					}
				}
			}
		}
	}
	JOINT LeftUpLeg
	{
		OFFSET 19.899099 -7.885101 -3.429500
		CHANNELS 3 Xrotation Yrotation Zrotation
		JOINT LeftLeg
		{
			OFFSET 1.745560 -36.997807 10.304700
			CHANNELS 3 Xrotation Yrotation Zrotation
			JOINT LeftFoot
			{
				OFFSET -1.745558 -29.803308 -13.615400
				CHANNELS 3 Xrotation Yrotation Zrotation
				JOINT LeftToeBase
				{
					OFFSET 1.181900 -18.539904 15.226099
					CHANNELS 3 Xrotation Yrotation Zrotation
					JOINT LeftToe_End
					{
						OFFSET -0.863701 1.402801 16.534700
						CHANNELS 3 Xrotation Yrotation Zrotation
						End Site
						{
							OFFSET 0.000000 16.616566 0.000000
						}
					}
				}
			}
		}
	}
	JOINT RightUpLeg
	{
		OFFSET -19.899099 -7.885101 -3.429500
		CHANNELS 3 Xrotation Yrotation Zrotation
		JOINT RightLeg
		{
			OFFSET -1.745560 -36.997807 10.304700
			CHANNELS 3 Xrotation Yrotation Zrotation
			JOINT RightFoot
			{
				OFFSET 1.745558 -29.803308 -13.615400
				CHANNELS 3 Xrotation Yrotation Zrotation
				JOINT RightToeBase
				{
					OFFSET -1.181900 -18.539904 15.226099
					CHANNELS 3 Xrotation Yrotation Zrotation
					JOINT RightToe_End
					{
						OFFSET 0.863701 1.402801 16.534700
						CHANNELS 3 Xrotation Yrotation Zrotation
						End Site
						{
							OFFSET 0.000000 16.616566 0.000000
						}
					}
				}
			}
		}
	}
}
MOTION
Frames: 4
Frame Time: 0.033333
3.290882 73.818527 0.387812 11.273015 -1.227949 -5.825248 9.983349 1.788333 7.925417 2.029112 -0.047010 0.508498 4.987212 -0.052527 0.186541 -3.841292 -0.341669 -0.277916 -16.135760 0.809280 -3.139613 -0.000000 0.000000 0.000000 0.557755 -4.314580 -11.777467 13.923809 -4.817014 -56.121414 -0.000000 -89.999975 -0.000002 3.946665 -2.534517 11.903143 -0.820501 6.623800 -5.864556 14.168520 15.386717 18.402780 -0.847637 -39.830443 12.903382 0.000002 -0.000001 -0.000003 7.311309 13.596490 -78.537231 4.413843 5.672383 -75.756941 4.171596 5.605655 -73.291973 -0.000001 -0.000000 -0.000000 2.753124 7.678717 -78.443514 5.946875 5.850270 -90.939878 3.878870 5.509746 -70.270181 0.000000 0.000002 0.000003 4.883435 8.108003 -80.603356 4.657607 5.728462 -78.210782 3.078720 5.154603 -61.676116 0.000003 -0.000001 0.000001 9.947266 5.735750 -90.836257 4.054218 5.569247 -72.086397 5.462399 5.838171 -86.184789 -0.000000 -0.000002 -0.000001 0.567968 4.488693 11.813869 -16.187051 25.518736 44.451155 0.002649 90.272261 -0.002571 7.844000 11.318571 -12.809344 5.535793 -3.771035 -3.032802 2.457536 -9.078671 -15.939539 -8.950786 17.084007 -15.511805 -0.000001 -0.000001 0.000001 -3.723534 -3.298325 73.104990 3.463130 -4.501826 75.128502 2.055825 -3.864248 56.013924 0.000003 -0.000001 -0.000001 -3.073229 -4.980230 74.622358 3.766075 -4.571316 78.957007 3.246672 -4.438881 72.351948 -0.000002 0.000000 -0.000001 -3.819536 -5.359662 78.849527 3.124245 -4.398148 70.762850 2.797525 -4.270513 66.441881 -0.000001 -0.000002 -0.000000 -1.443999 -6.451686 84.219538 3.515506 -4.515354 75.795087 1.230065 -3.155339 42.587196 0.000003 -0.000000 0.000002 -35.085200 0.617930 6.308830 124.286493 5.278008 -0.891205 -13.602684 2.697871 -3.946416 -0.230049 0.000002 -0.000000 0.000000 0.000001 -0.000000 -33.550220 -11.114163 8.021953 58.332268 0.126447 0.893222 -35.581806 2.913256 -7.580434 1.388343 -0.000168 0.157409 -0.000000 0.000000 -0.000000 
3.021548 73.955368 15.674706 6.730158 -2.653302 -0.754277 10.275938 2.755386 5.682986 2.237150 1.029263 -1.447339 5.188431 0.922754 -1.840242 -3.176468 -0.659475 -0.380622 -14.957069 -1.930827 -1.024825 0.000000 -0.000000 -0.000000 0.615222 -3.443948 -12.867307 15.625359 -0.276237 -51.835036 0.000020 -74.580461 -0.000002 3.060318 5.853700 -5.177346 -0.717764 6.867694 -6.070093 14.085172 15.590721 18.783713 -0.760706 -40.594106 13.039880 -0.000001 0.000002 -0.000002 7.158425 13.433613 -79.558303 4.508369 5.695434 -76.711357 4.293697 5.640678 -74.537916 -0.000001 0.000001 -0.000000 2.682448 7.722063 -79.937966 6.072903 5.846852 -92.176545 4.005541 5.553345 -71.584146 -0.000004 -0.000001 0.000005 5.049152 8.135143 -82.264417 4.771347 5.750907 -79.348063 3.182849 5.209139 -62.828847 0.000002 -0.000002 0.000006 10.369558 5.546784 -92.670825 4.129748 5.592973 -72.862996 5.626467 5.846741 -87.796269 -0.000000 0.000003 0.000001 0.232744 7.365665 12.207899 -17.101055 25.371849 44.915546 0.000907 84.584605 -0.000817 5.325484 12.666845 -13.522246 5.654674 -3.887727 -2.997919 2.384717 -9.085904 -16.109811 -8.997057 17.305973 -15.511800 0.000000 -0.000004 0.000004 -3.654047 -3.419546 73.904846 3.498068 -4.510924 75.573079 2.093580 -3.889385 56.572445 -0.000002 -0.000003 0.000003 -3.099100 -5.075283 75.446399 3.815059 -4.580563 79.571212 3.302658 -4.456244 73.073865 0.000000 0.000001 -0.000006 -3.944440 -5.448675 79.650934 3.159467 -4.410269 71.221784 2.847007 -4.291697 67.104730 0.000001 0.000001 -0.000003 -1.681997 -6.404098 84.815028 3.555680 -4.525322 76.304640 1.249849 -3.176688 42.945176 -0.000002 0.000000 0.000004 -66.087633 -1.044789 5.803009 110.031185 7.844652 0.098139 7.111074 3.276546 1.091831 1.674714 -0.000006 0.000001 0.000000 0.000000 -0.000000 -11.089524 -9.195167 5.271207 56.440513 1.905055 -1.214566 -50.411980 2.862325 -9.053278 -2.112495 -0.000002 -0.000000 -0.000000 0.000000 -0.000000 
2.050356 75.592934 29.052876 3.145101 -3.363948 4.565268 9.610520 4.127504 2.837528 1.660515 2.429910 -3.401576 4.577996 2.228264 -3.886358 -2.028230 -1.087542 -0.955092 -10.879248 -6.127817 2.089417 0.000001 0.000000 0.000000 0.810014 -0.759728 -14.333447 16.158713 5.209590 -45.152717 0.000032 -63.194952 0.000023 11.978391 7.104226 -28.029250 -0.483030 7.422770 -6.538908 13.886936 16.048656 19.648964 -0.522993 -42.339007 13.384496 0.000001 -0.000003 0.000000 6.791723 13.096625 -81.876394 4.724586 5.741962 -78.880755 4.573837 5.710435 -77.370177 -0.000002 0.000000 -0.000002 2.523222 7.847723 -83.333540 6.358832 5.829059 -94.986942 4.296946 5.641577 -74.571090 -0.000002 0.000002 -0.000003 5.428256 8.179257 -86.040173 5.031391 5.793571 -81.933112 3.423468 5.325283 -65.449386 0.000002 0.000000 0.000008 11.295909 5.031262 -96.829871 4.302564 5.643118 -74.628163 5.999755 5.849163 -91.458808 0.000001 0.000003 0.000001 0.125798 9.300056 12.327304 -14.526622 21.863284 45.778735 0.000130 79.738559 -0.000161 3.528415 17.457695 -14.361957 5.943137 -4.170650 -2.911212 2.208389 -9.101710 -16.523315 -9.110723 17.844854 -15.510827 -0.000001 -0.000002 0.000001 -3.478157 -3.706537 75.848848 3.583184 -4.531907 76.652816 2.186312 -3.948877 57.929013 -0.000002 -0.000003 -0.000001 -3.157250 -5.311476 77.447406 3.934481 -4.600857 81.062939 3.439502 -4.495502 74.827229 -0.000001 -0.000001 -0.000004 -4.244292 -5.681794 81.595325 3.245486 -4.438505 72.336478 2.968183 -4.340728 68.714626 -0.000002 -0.000004 0.000002 -2.281030 -6.498306 86.234799 3.655306 -4.548362 77.564304 1.298398 -3.227968 43.814379 0.000002 -0.000002 0.000002 -68.872520 -0.281090 2.327152 84.807447 8.613089 0.419057 8.087828 5.863660 4.237641 1.926198 0.000002 -0.000002 -0.000001 0.000002 0.000001 10.212629 -9.716914 3.605962 44.965717 2.876651 -4.629437 -55.235904 -0.856660 -13.827532 -4.862206 -0.000003 -0.000006 0.000000 -0.000000 -0.000000 
1.019966 78.533852 42.124779 1.478552 -2.533139 7.129028 8.406885 6.550923 0.110369 0.544617 4.222589 -4.949311 3.400570 3.910573 -5.556667 -0.432585 -1.562743 -1.793404 -3.067966 -10.941963 6.895474 0.000000 0.000000 0.000000 1.152951 4.086920 -15.198219 10.379068 11.025146 -35.322716 0.000021 -52.635961 0.000010 20.196557 0.342387 -45.068122 -0.227473 8.023346 -7.047942 13.659276 16.533928 20.582656 -0.193025 -44.237199 13.815248 -0.000002 0.000001 -0.000006 6.368696 12.785791 -84.376298 4.959877 5.783034 -81.224036 4.879931 5.770191 -80.429719 -0.000003 0.000001 -0.000000 2.357083 8.025764 -86.999562 6.666205 5.794186 -98.021950 4.616449 5.719765 -77.797945 -0.000001 0.000002 0.000003 5.840041 8.199283 -90.118540 5.314112 5.826457 -84.725403 3.689061 5.438268 -68.280616 0.000002 0.000000 0.000001 12.232928 4.344767 -101.302784 4.490858 5.691290 -76.534892 6.402181 5.825126 -95.414225 0.000000 -0.000000 -0.000001 0.187075 10.411467 11.844155 -9.369012 16.293650 48.439524 0.000108 75.515002 -0.000112 4.711490 21.819654 -15.756087 6.299113 -4.519389 -2.800177 1.991543 -9.117802 -17.034208 -9.253569 18.510002 -15.507729 0.000001 -0.000003 -0.000000 -3.247448 -4.046381 78.253409 3.688866 -4.555614 77.986663 2.302771 -4.019333 59.605114 -0.000005 -0.000001 -0.000001 -3.219244 -5.613559 79.918923 4.082623 -4.621674 82.905786 3.610116 -4.538193 76.993383 0.000002 0.000003 -0.000004 -4.606297 -6.002827 83.993445 3.352453 -4.471049 73.713553 3.119703 -4.396573 70.703605 0.000001 -0.000001 -0.000002 -3.021508 -6.681478 87.974462 3.779870 -4.573972 79.130016 1.359422 -3.290296 44.887590 -0.000003 -0.000001 0.000004 -59.890179 -0.692928 -0.010248 52.830687 7.658300 1.847849 3.282029 4.061811 4.330550 1.781733 -0.000003 -0.000008 0.000000 -0.000000 0.000001 28.253735 -8.294627 6.695363 25.819059 2.411330 -7.590255 -46.008171 -8.076259 -18.402396 -7.637846 -0.268434 5.869598 -0.000000 -0.000000 -0.000000 
